# xmcd
#
# Track frame offsets: 
#        150
#        17998
#        34290
#        56171
#        77081
#        91893
#        115704
#        141265
#        161776
#
# Disc length: 2378 seconds
#
# Revision: 0
# Processed by: cddbd v1.5.2PL0 Copyright (c) Steve Scherf et al.
# Submitted via: ExactAudioCopyFreeDBPlugin 1.0
#
DISCID=76094809
DTITLE=Le Cat Trong Ly - Tuoi 25
DYEAR=2012
DGENRE=Acoustic
TTITLE0=Mua xuan
TTITLE1=Thuong
TTITLE2=Con duong la
TTITLE3=Thu lu
TTITLE4=Chua ai
TTITLE5=Khong ten
TTITLE6=Mong du
TTITLE7=Tam chu co
TTITLE8=Nhieu nguoi om giac mo
EXTD=
EXTT0=
EXTT1=
EXTT2=
EXTT3=
EXTT4=
EXTT5=
EXTT6=
EXTT7=
EXTT8=
PLAYORDER=
